<svg
	version="1.0"
	xmlns="http://www.w3.org/2000/svg"
	width="289.000000pt"
	height="279.000000pt"
	viewBox="0 0 289.000000 279.000000"
	preserveAspectRatio="xMidYMid meet"
>
	<rect
		x="0"
		y="0"
		width="100%"
		height="100%"
		rx="60" 
		ry="60"
		fill="white"
	/>
	<g
		transform="translate(0.000000,279.000000) scale(0.100000,-0.100000)"
		fill="currentColor"
		stroke="none"
	>
		<path
			d="M832 2494 c-144 -31 -254 -95 -358 -207 -74 -81 -145 -214 -164 -311
  -13 -62 -15 -215 -5 -262 12 -52 47 -154 53 -154 3 0 27 18 54 41 100 84 220
  146 352 181 113 30 307 30 421 -1 136 -36 267 -107 361 -193 l42 -38 16 41
  c67 168 59 364 -24 534 -91 188 -251 317 -452 365 -96 23 -204 24 -296 4z"
		/>
		<path
			d="M1743 2499 c-28 -5 -76 -18 -107 -29 l-55 -21 59 -71 c70 -83 142
  -222 171 -333 31 -119 32 -310 1 -425 -36 -131 -103 -257 -198 -367 l-36 -42
  69 -21 c256 -79 502 -21 689 165 91 89 140 169 176 285 34 110 32 282 -5 395
  -107 326 -426 520 -764 464z"
		/>
		<path
			d="M832 1605 c-210 -48 -376 -180 -467 -370 -51 -107 -67 -176 -66 -295
  1 -313 207 -577 511 -655 115 -30 361 -10 429 34 12 7 5 20 -33 62 -135 150
  -206 347 -206 566 1 215 67 396 206 560 29 33 40 54 33 59 -69 42 -297 64
  -407 39z"
		/>
		<path
			d="M1221 1158 c-82 -246 -19 -514 163 -693 136 -133 259 -186 452 -193
  102 -3 133 -1 200 18 121 33 207 83 300 175 127 125 189 261 201 435 6 90 -12
  212 -42 284 l-15 36 -63 -51 c-213 -173 -481 -238 -744 -180 -140 30 -308 117
  -387 200 -17 17 -33 31 -37 31 -4 0 -17 -28 -28 -62z"
		/>
	</g>
</svg>
